<svg xmlns="http://www.w3.org/2000/svg" xmlns:xlink="http://www.w3.org/1999/xlink" xmlns:xodm="http://www.corel.com/coreldraw/odm/2003" xml:space="preserve" width="210mm" height="210mm" style="shape-rendering:geometricPrecision; text-rendering:geometricPrecision; image-rendering:optimizeQuality; fill-rule:evenodd; clip-rule:evenodd" viewBox="0 0 21035.9 21035.9"> <defs> <style type="text/css"> .fil1 {fill:#FEFEFE;fill-rule:nonzero} .fil0 {fill:#001935;fill-rule:nonzero} </style> </defs> <g id="Слой_x0020_1"> <metadata id="CorelCorpID_0Corel-Layer"/> <g id="_2559502009312"> <path id="Background" class="fil0" d="M-0 10097.23c0,-4759.98 0,-7142.42 1478.38,-8618.85 1478.38,-1476.43 3858.87,-1478.38 8618.85,-1478.38l841.44 0c4759.98,0 7142.42,0 8618.85,1478.38 1476.43,1478.38 1478.38,3858.87 1478.38,8618.85l0 841.44c0,4759.98 0,7142.42 -1478.38,8618.85 -1478.38,1476.43 -3858.87,1478.38 -8618.85,1478.38l-841.44 0c-4759.98,0 -7142.42,0 -8618.85,-1478.38 -1476.43,-1478.38 -1478.38,-3858.87 -1478.38,-8618.85l0 -841.44z"/> <path class="fil1" d="M5668.31 4962.01c41.12,2028.16 702.03,4531.52 1970.12,7021.83 1268.09,2490.32 2903.88,4497.3 4519.91,5723.48 219.61,166.14 512.83,193.84 759.26,69.49l1670.43 -850.6 389.22 -198.2c351.39,-178.93 491.56,-609.97 312.63,-961.35l-1317.17 -2584.47c-178.93,-351.39 -609.97,-491.56 -961.36,-312.63l-700.95 356.95c-364,185.35 -810.69,70.16 -1040.18,-269.1 -453.93,-670.86 -883.42,-1398.42 -1277.05,-2171.48 -393.64,-773.04 -729.42,-1548.32 -1004.97,-2310.02 -139.39,-385.14 29.74,-812.78 394.2,-999.49l700.97 -356.94c351.39,-178.93 491.56,-609.98 312.63,-961.36l-1316.73 -2585.82c-178.93,-351.38 -609.97,-491.56 -961.36,-312.63l-389.22 198.2 -1670.42 850.59c-245.1,124.79 -395.16,378.22 -389.99,653.56z"/> </g> </g> </svg>